<svg width="1366" height="72" viewBox="0 0 1366 72" fill="none" xmlns="http://www.w3.org/2000/svg">
<path fill-rule="evenodd" clip-rule="evenodd" d="M173.384 69.1276C153.388 67.8927 131.279 57.2554 110.363 28.3803C80.4881 -12.8629 27.421 -1.90829 0 16.743V71.1272H1366V12.8799C1346.96 12.2708 1325.13 16.2705 1301.97 28.3803C1242 59.7495 1194.32 39.4305 1171.94 28.3803C1136.98 11.1144 1062.67 -6.84219 996.016 39.4305C966.362 60.0169 898.766 51.862 873.633 28.3803C868.501 25.0205 863.58 22.388 858.867 20.3871V20.4155C858.78 20.3735 858.693 20.3317 858.606 20.2901C858.529 20.2531 858.451 20.2163 858.374 20.1796C850.171 16.7631 842.603 15.2617 835.654 15.1663C828.705 15.2617 821.138 16.7632 812.935 20.1798C812.77 20.2577 812.606 20.3362 812.442 20.4155V20.3871C807.729 22.388 802.808 25.0205 797.676 28.3803C772.543 51.862 704.947 60.0169 675.292 39.4305C608.637 -6.84219 534.333 11.1144 499.367 28.3803C476.988 39.4305 429.306 59.7495 369.335 28.3803C305.958 -4.77028 252.415 22.8552 239.303 39.4305C231.972 48.6973 209.398 67.4269 181.49 69.1276H173.384Z" fill="white"/>
</svg>
