<svg width="141" height="193" viewBox="0 0 141 193" fill="none" xmlns="http://www.w3.org/2000/svg">
<path d="M84.1002 8C109.524 31.3625 112.731 40.3525 120.175 52.6637C129.309 67.771 153.291 157.196 123.61 181.788C113.589 190.09 30.2747 197.534 12.5238 174.916C-1.67696 156.822 10.3285 86.6386 19.6811 52.6637C19.6811 39.4936 22.8305 24.6057 19.6811 8C33.5196 25.9468 40.8771 37.8208 45.7522 48.4879C46.2219 49.5156 47.4414 49.9695 48.5187 49.6286C58.0834 46.602 78.2551 48.3376 88.3104 49.9575C89.5502 50.1572 90.6844 49.2123 90.629 47.9578C90.185 37.9094 87.1833 23.2393 84.1002 8Z" fill="white" stroke="black" stroke-width="5" stroke-linecap="round"/>
<path d="M84.1002 8C109.524 31.3625 112.731 40.3525 120.175 52.6637C129.309 67.771 153.291 157.196 123.61 181.788C113.589 190.09 30.2747 197.534 12.5238 174.916C-1.67696 156.822 10.3285 86.6386 19.6811 52.6637C19.6811 39.4936 22.8305 24.6057 19.6811 8C33.5196 25.9468 40.8771 37.8208 45.7522 48.4879C46.2219 49.5156 47.4414 49.9695 48.5187 49.6286C58.0834 46.602 78.2551 48.3376 88.3104 49.9575C89.5502 50.1572 90.6844 49.2123 90.629 47.9578C90.185 37.9094 87.1833 23.2393 84.1002 8Z" fill="white" stroke="black" stroke-width="5" stroke-linecap="round"/>
<rect x="-2.5" y="2.5" width="48.2528" height="21.0538" rx="10.5269" transform="matrix(-1 0 0 1 114.602 69.2695)" fill="white" stroke="black" stroke-width="5"/>
<path fill-rule="evenodd" clip-rule="evenodd" d="M77.1641 81.2686C77.3025 81.2872 77.4439 81.2968 77.5874 81.2968C79.3268 81.2968 80.7368 79.8868 80.7368 78.1474C80.7368 77.0087 80.1325 76.0112 79.2271 75.458C79.6655 75.2604 80.1519 75.1504 80.6641 75.1504C82.5971 75.1504 84.1641 76.7174 84.1641 78.6504V83.0146C82.9029 83.0191 81.882 84.0429 81.882 85.305C81.882 86.3318 82.5576 87.2008 83.4886 87.4917C82.8517 88.3604 81.8238 88.9244 80.6641 88.9244C78.7311 88.9244 77.1641 87.3574 77.1641 85.4244V81.2686Z" fill="black"/>
<rect x="-2.5" y="2.5" width="48.2528" height="21.0538" rx="10.5269" transform="matrix(-1 0 0 1 48.252 69.2695)" fill="white" stroke="black" stroke-width="5"/>
<path fill-rule="evenodd" clip-rule="evenodd" d="M10.8145 81.2686C10.9529 81.2872 11.0942 81.2968 11.2378 81.2968C12.9772 81.2968 14.3872 79.8868 14.3872 78.1474C14.3872 77.0087 13.7829 76.0112 12.8775 75.458C13.3159 75.2604 13.8023 75.1504 14.3145 75.1504C16.2474 75.1504 17.8145 76.7174 17.8145 78.6504V83.0146C16.5533 83.0191 15.5324 84.0429 15.5324 85.305C15.5324 86.3318 16.208 87.2008 17.139 87.4917C16.5021 88.3604 15.4741 88.9244 14.3145 88.9244C12.3815 88.9244 10.8145 87.3574 10.8145 85.4244V81.2686Z" fill="black"/>
<path d="M46.3066 103.339C48.3926 107.106 50.831 109.755 52.9644 111.928C55.4565 114.466 58.5746 102.771 60.9809 103.339C63.2637 102.501 68.5417 114.421 70.429 111.928C72.0594 109.774 74.8686 106.564 76.0824 103.339" stroke="black" stroke-width="5" stroke-linecap="round" stroke-linejoin="round"/>
</svg>
