<svg width="141" height="192" viewBox="0 0 141 192" fill="none" xmlns="http://www.w3.org/2000/svg">
<path d="M84.1019 7.05078C109.526 30.4134 112.732 39.4035 120.176 51.7147C129.311 66.8221 153.293 156.247 123.612 180.839C113.591 189.142 30.2762 196.586 12.5251 173.968C-1.67569 155.873 10.3298 85.6898 19.6825 51.7147C19.6825 38.5446 22.8319 23.6566 19.6825 7.05078C33.5211 24.9977 40.8786 36.8718 45.7537 47.5389C46.2234 48.5666 47.4429 49.0205 48.5202 48.6796C58.085 45.6529 78.2567 47.3886 88.3121 49.0085C89.5519 49.2082 90.6861 48.2633 90.6307 47.0087C90.1868 36.9603 87.185 22.2901 84.1019 7.05078Z" fill="white" stroke="black" stroke-width="5" stroke-linecap="round"/>
<path d="M84.1019 7.05078C109.526 30.4134 112.732 39.4035 120.176 51.7147C129.311 66.8221 153.293 156.247 123.612 180.839C113.591 189.142 30.2762 196.586 12.5251 173.968C-1.67569 155.873 10.3298 85.6898 19.6825 51.7147C19.6825 38.5446 22.8319 23.6566 19.6825 7.05078C33.5211 24.9977 40.8786 36.8718 45.7537 47.5389C46.2234 48.5666 47.4429 49.0205 48.5202 48.6796C58.085 45.6529 78.2567 47.3886 88.3121 49.0085C89.5519 49.2082 90.6861 48.2633 90.6307 47.0087C90.1868 36.9603 87.185 22.2901 84.1019 7.05078Z" fill="white" stroke="black" stroke-width="5" stroke-linecap="round"/>
<rect x="-2.5" y="2.5" width="48.2531" height="21.0539" rx="10.527" transform="matrix(-1 0 0 1 114.604 68.3203)" fill="white" stroke="black" stroke-width="5"/>
<path fill-rule="evenodd" clip-rule="evenodd" d="M80.6655 74.2002C78.7325 74.2002 77.1655 75.7672 77.1655 77.7002V84.4742C77.1655 86.4072 78.7325 87.9742 80.6655 87.9742C82.5985 87.9742 84.1655 86.4072 84.1655 84.4742V77.7002C84.1655 75.7672 82.5985 74.2002 80.6655 74.2002Z" fill="black"/>
<rect x="-2.5" y="2.5" width="48.2531" height="21.0539" rx="10.527" transform="matrix(-1 0 0 1 48.2529 68.3203)" fill="white" stroke="black" stroke-width="5"/>
<path fill-rule="evenodd" clip-rule="evenodd" d="M14.3149 74.2002C12.3819 74.2002 10.8149 75.7672 10.8149 77.7002V84.4742C10.8149 86.4072 12.3819 87.9742 14.3149 87.9742C16.2479 87.9742 17.8149 86.4072 17.8149 84.4742V77.7002C17.8149 75.7672 16.2479 74.2002 14.3149 74.2002Z" fill="black"/>
<path d="M46.3091 102.391C48.3951 106.158 50.8335 108.807 52.9668 110.98C55.459 113.519 58.5771 101.823 60.9834 102.391C63.2662 101.554 68.5443 113.473 70.4316 110.98C72.062 108.826 74.8712 105.616 76.085 102.391" stroke="black" stroke-width="5" stroke-linecap="round" stroke-linejoin="round"/>
</svg>
