<?xml version="1.0" encoding="UTF-8"?>
<svg id="Layer_2" data-name="Layer 2" xmlns="http://www.w3.org/2000/svg" viewBox="0 0 27.52 32.19">
  <defs>
    <style>
      .cls-1 {
        fill-rule: evenodd;
      }

      .cls-1, .cls-2, .cls-3 {
        stroke-width: 0px;
      }

      .cls-4, .cls-5, .cls-6 {
        stroke-linecap: round;
      }

      .cls-4, .cls-5, .cls-6, .cls-7, .cls-8 {
        fill: none;
      }

      .cls-4, .cls-5, .cls-9, .cls-8 {
        stroke: #000;
      }

      .cls-5 {
        stroke-linejoin: round;
      }

      .cls-6, .cls-7 {
        stroke: #fff;
        stroke-width: 2px;
      }

      .cls-3, .cls-9 {
        fill: #fff;
      }
    </style>
  </defs>
  <g id="Layer_1-2" data-name="Layer 1">
    <g>
      <g>
        <path class="cls-3" d="m24.57,14.51c1.08,0,1.95.87,1.95,1.95h0c0,1.08-.87,1.95-1.95,1.95"/>
        <path class="cls-7" d="m24.57,14.51c1.08,0,1.95.87,1.95,1.95h0c0,1.08-.87,1.95-1.95,1.95"/>
        <path class="cls-8" d="m24.57,14.51c1.08,0,1.95.87,1.95,1.95h0c0,1.08-.87,1.95-1.95,1.95"/>
      </g>
      <g>
        <path class="cls-3" d="m11.13,2.82c-4.78,4.4-5.38,6.09-6.78,8.41-1.72,2.85-6.23,13.78-.65,18.41,1.88,1.56,17.55,2.97,20.88-1.29,2.67-3.41.41-10.72-1.35-17.12,0-2.48-.59-5.29,0-8.41-1.98,2.57-3.25,4.48-4.15,6.12-.54.99-1.8,1.52-2.93,1.44-1.2-.08-2.63-.02-3.87.09-1.25.12-2.37-.85-2.19-2.09.23-1.63.63-3.58,1.03-5.57Z"/>
        <path class="cls-6" d="m11.13,2.82c-4.78,4.4-5.38,6.09-6.78,8.41-1.72,2.85-6.23,13.78-.65,18.41,1.88,1.56,17.55,2.97,20.88-1.29,2.67-3.41.41-10.72-1.35-17.12,0-2.48-.59-5.29,0-8.41-1.98,2.57-3.25,4.48-4.15,6.12-.54.99-1.8,1.52-2.93,1.44-1.2-.08-2.63-.02-3.87.09-1.25.12-2.37-.85-2.19-2.09.23-1.63.63-3.58,1.03-5.57Z"/>
        <path class="cls-4" d="m11.13,2.82c-4.78,4.4-5.38,6.09-6.78,8.41-1.72,2.85-6.23,13.78-.65,18.41,1.88,1.56,17.55,2.97,20.88-1.29,2.67-3.41.41-10.72-1.35-17.12,0-2.48-.59-5.29,0-8.41-1.98,2.57-3.25,4.48-4.15,6.12-.54.99-1.8,1.52-2.93,1.44-1.2-.08-2.63-.02-3.87.09-1.25.12-2.37-.85-2.19-2.09.23-1.63.63-3.58,1.03-5.57Z"/>
      </g>
      <rect class="cls-9" x="4.97" y="14.54" width="9.03" height="3.91" rx="1.95" ry="1.95"/>
      <path class="cls-1" d="m10.62,15.31c.28,0,.5.22.5.5v1.28c0,.28-.22.5-.5.5s-.5-.22-.5-.5v-1.28c0-.28.22-.5.5-.5Z"/>
      <path class="cls-2" d="m11.62,15.81c0-.55-.45-1-1-1v1h1Zm0,1.28v-1.28h-1v1.28h1Zm-1,1c.55,0,1-.45,1-1h-1v1Zm-1-1c0,.55.45,1,1,1v-1h-1Zm0-1.28v1.28h1v-1.28h-1Zm1-1c-.55,0-1,.45-1,1h1v-1Z"/>
      <rect class="cls-9" x="17.47" y="14.51" width="9.03" height="3.91" rx="1.95" ry="1.95"/>
      <path class="cls-1" d="m23.12,15.31c.28,0,.5.22.5.5v1.28c0,.28-.22.5-.5.5s-.5-.22-.5-.5v-1.28c0-.28.22-.5.5-.5Z"/>
      <path class="cls-2" d="m24.12,15.81c0-.55-.45-1-1-1v1h1Zm0,1.28v-1.28h-1v1.28h1Zm-1,1c.55,0,1-.45,1-1h-1v1Zm-1-1c0,.55.45,1,1,1v-1h-1Zm0-1.28v1.28h1v-1.28h-1Zm1-1c-.55,0-1,.45-1,1h1v-1Z"/>
      <path class="cls-5" d="m18.28,20.46c-.39.71-.85,1.21-1.25,1.62-.47.48-1.06-1.73-1.51-1.62-.43-.16-1.42,2.09-1.78,1.62-.31-.41-.84-1.01-1.07-1.62"/>
    </g>
  </g>
</svg>