<svg width="1366" height="154" viewBox="0 0 1366 154" fill="none" xmlns="http://www.w3.org/2000/svg">
<path fill-rule="evenodd" clip-rule="evenodd" d="M0 44.4235C79.9963 51.7925 194.468 53.1208 343.13 30.6663C356.15 28.6997 369.127 26.9307 382.038 25.3455C369.757 26.4214 357.383 27.6202 344.929 28.9511C182.032 46.3605 75.7484 43.5412 0 37.8322V0H1366V16.2298C1339.7 20.5635 1311.32 26.3812 1280.57 33.9054C1114.02 74.6677 925.529 56.4098 828.001 42.5393C730.954 28.7369 542.823 12.6401 344.922 42.5317C195.896 65.0412 80.8198 63.8343 2.85581e-10 56.4737L0 44.4235ZM0 77.2568L0 69.208C88.3981 79.15 216.335 81.154 343.124 51.8128C532.676 7.94724 746.407 33.5256 829.696 51.8012C924.884 72.3238 1127.89 90.933 1277.94 43.4139C1308.93 33.6003 1338.33 27.1376 1366 23.0012V31.0867C1339.05 35.173 1310.47 41.5024 1280.35 51.0406C1128.39 99.1657 923.791 80.2731 828.003 59.62L827.995 59.6184L827.988 59.6169C745.372 41.4876 532.922 16.1019 344.928 59.6068C217.654 89.0601 89.2574 87.2149 0 77.2568ZM0 98.4339V93.4028C88.5575 103.444 216.579 105.438 343.457 75.7912C532.724 31.5665 746.221 57.3585 829.384 75.7842C924.685 96.5307 1127.99 115.478 1278.38 67.28C1309.43 57.3292 1338.62 51.0227 1366 47.1291V52.1705C1339.09 56.035 1310.42 62.2619 1279.91 72.0414C1128.31 120.627 923.99 101.498 828.314 80.6684L828.305 80.6664C745.565 62.3338 532.877 36.6653 344.595 80.6601C217.411 110.378 89.0994 108.486 0 98.4339ZM0 106.027V102.997C89.8598 116.044 227.281 122.773 361.579 91.5232C550.667 47.5251 778.428 92.1453 869.109 115.513C937.096 133.032 1029.21 133.518 1122.68 122.968C1208.71 113.259 1295.76 94.2169 1366 70.6055V73.7698C1295.69 97.3095 1208.84 116.264 1123.02 125.949C1029.4 136.516 936.863 136.07 868.36 118.418C777.77 95.0737 550.605 50.6198 362.259 94.4451C227.771 125.739 90.2052 119.084 0 106.027ZM0 118.747V116.716C64.5049 127.993 115.998 133.681 165.929 133.724C235.386 133.784 301.87 122.921 396.201 100.922C490.752 78.8715 579.242 87.3574 656.418 102.746C690.359 109.513 722.127 117.619 751.251 125.051L751.252 125.051L751.252 125.051L751.253 125.051L751.253 125.052C755.236 126.068 759.17 127.072 763.053 128.058C795.351 136.259 824.116 143.223 848.761 146.035C982.047 161.244 1197.69 148.427 1343.79 95.3479C1351.52 92.5386 1358.91 90.0115 1366 87.7445V89.8448C1359.13 92.0531 1351.96 94.5072 1344.47 97.2276C1198.02 150.437 982.046 163.257 848.534 148.022C823.733 145.192 794.838 138.192 762.561 129.996C758.695 129.015 754.78 128.016 750.818 127.005L750.807 127.002L750.756 126.989C721.627 119.556 689.913 111.464 656.027 104.707C578.995 89.3475 490.82 80.9092 396.655 102.87C302.27 124.882 235.612 135.784 165.927 135.724C115.935 135.681 64.4111 129.995 0 118.747ZM798.255 26.5346C809.57 27.9009 820.074 29.2911 829.691 30.6588C926.915 44.4863 1113.5 62.4403 1277.72 22.2495C1287.13 19.9467 1296.32 17.8011 1305.31 15.8066C1297.32 17.2654 1289.13 18.7939 1280.73 20.3914C1110.3 52.8224 940.525 38.4699 836.251 29.6547L836.188 29.6494C833.458 29.4186 830.772 29.1915 828.132 28.9692C818.849 28.1875 808.874 27.3655 798.255 26.5346Z" fill="#004643"/>
</svg>
