<svg width="1366" height="154" viewBox="0 0 1366 154" fill="none" xmlns="http://www.w3.org/2000/svg">
<path fill-rule="evenodd" clip-rule="evenodd" d="M1366 115.443C1287.16 104.096 1155.94 95.6818 972.87 123.333C959.85 125.3 946.873 127.069 933.962 128.654C946.243 127.578 958.617 126.379 971.071 125.048C1173.39 103.426 1288.38 113.008 1366 120.574V154H0V128.243C11.4507 125.785 23.2543 123.073 35.4279 120.094C201.98 79.3318 390.471 97.5897 487.999 111.46C585.046 125.263 773.177 141.359 971.078 111.468C1154.13 83.8187 1285.96 91.9528 1366 103.321L1366 115.443ZM1366 83.757V91.8739C1281.28 77.0667 1126.24 66.6955 972.876 102.187C783.324 146.052 569.593 120.474 486.304 102.198C391.116 81.6757 188.108 63.0665 38.0619 110.586C25.0933 114.693 12.4025 118.213 0 121.221V112.988C11.6287 110.123 23.5131 106.802 35.6466 102.959C187.606 54.8338 392.209 73.7264 487.997 94.3795L488.005 94.3811L488.012 94.3827C570.628 112.512 783.078 137.898 971.072 94.3927C1124.67 58.8482 1279.9 68.8865 1366 83.757ZM1366 62.6605V67.735C1281.03 52.7718 1125.95 42.3629 972.543 78.2083C783.276 122.433 569.779 96.6411 486.616 78.2153C391.315 57.4689 188.01 38.5214 37.6172 86.7195C24.7601 90.84 12.2224 94.3355 0 97.2937V92.1514C11.7327 89.2813 23.761 85.9097 36.0913 81.9581C187.694 33.3721 392.01 52.502 487.686 73.3311L487.695 73.3331C570.435 91.6657 783.123 117.334 971.405 73.3395C1124.96 37.4601 1280.15 47.6571 1366 62.6605ZM1366 56.7319V59.7971C1284.2 42.4781 1117.02 24.6413 954.421 62.4763C765.333 106.474 537.572 61.8542 446.891 38.4868C378.904 20.9673 286.79 20.4812 193.318 31.0311C126.736 38.546 59.5419 51.6515 0 68.1392V65.0267C59.5123 48.5962 126.559 35.5469 192.981 28.05C286.603 17.4832 379.137 17.9295 447.64 35.5818C538.23 58.9258 765.395 103.38 953.741 59.5544C1116.41 21.7039 1283.58 39.3708 1366 56.7319ZM1366 44.5549V46.5929C1276.86 29.1372 1212.25 20.3294 1150.07 20.2757C1080.61 20.2157 1014.13 31.0784 919.799 53.0776C825.248 75.1281 736.758 66.6422 659.582 51.2538C625.641 44.4862 593.873 36.3801 564.749 28.9485L564.748 28.9483L564.748 28.9482L564.747 28.9481L564.747 28.9479C560.764 27.9316 556.83 26.9278 552.947 25.9418C520.649 17.7407 491.884 10.7767 467.239 7.96457C342.173 -6.30652 144.594 4.09824 0 49.2871V47.1922C144.87 2.05824 342.366 -8.29752 467.466 5.97746C492.267 8.80745 521.162 15.8075 553.439 24.0033C557.308 24.9858 561.226 25.9855 565.193 26.9976L565.244 27.0108C594.373 34.4433 626.087 42.5358 659.973 49.2924C737.005 64.652 825.18 73.0903 919.345 51.1298C1013.73 29.118 1080.39 18.2155 1150.07 18.2757C1212.35 18.3295 1277.01 27.1398 1366 44.5549ZM517.745 127.465C506.43 126.099 495.926 124.708 486.309 123.341C389.085 109.513 202.498 91.5592 38.2806 131.75C28.8717 134.053 19.6765 136.198 10.6876 138.193C18.6799 136.734 26.8695 135.206 35.2654 133.608C205.703 101.177 375.475 115.53 479.749 124.345L479.812 124.35C482.542 124.581 485.228 124.808 487.868 125.03C497.151 125.812 507.126 126.634 517.745 127.465Z" fill="#004643"/>
</svg>
