<svg width="1366" height="154" viewBox="0 0 1366 154" fill="none" xmlns="http://www.w3.org/2000/svg">
<path fill-rule="evenodd" clip-rule="evenodd" d="M0 64.1553V66.2556C7.08508 63.9885 14.4778 61.4615 22.2101 58.6522C168.306 5.57321 383.953 -7.24399 517.239 7.96513C541.884 10.7773 570.649 17.7413 602.947 25.9424C606.83 26.9284 610.764 27.9321 614.747 28.9485L614.747 28.9486L614.748 28.9488L614.748 28.9489L614.749 28.9491C643.873 36.3806 675.641 44.4867 709.582 51.2543C786.758 66.6427 875.248 75.1286 969.799 53.0781C1064.13 31.079 1130.61 20.2163 1200.07 20.2763C1250 20.3194 1301.5 26.0069 1366 37.284V35.2536C1301.59 24.0047 1250.06 18.3194 1200.07 18.2763C1130.39 18.2161 1063.73 29.1186 969.345 51.1304C875.18 73.0908 787.005 64.6525 709.973 49.2929C676.087 42.5363 644.373 34.4438 615.244 27.0113L615.193 26.9981L615.182 26.9955L615.116 26.9785C611.176 25.9732 607.283 24.98 603.439 24.0039C571.162 15.808 542.267 8.80801 517.466 5.97803C383.954 -9.25685 167.983 3.56288 21.5272 56.7724C14.0394 59.4929 6.87354 61.947 0 64.1553ZM1366 47.9726C1275.79 34.9164 1138.23 28.2613 1003.74 59.5549C815.395 103.38 588.23 58.9264 497.64 35.5823C429.137 17.93 336.603 17.4838 242.981 28.0506C157.165 37.7364 70.3058 56.6906 0 80.2303V83.3946C70.2448 59.7832 157.292 40.7411 243.318 31.0317C336.79 20.4818 428.904 20.9679 496.891 38.4874C587.572 61.8548 815.333 106.475 1004.42 62.4769C1138.72 31.2274 1276.14 37.956 1366 51.0033V47.9726ZM1366 55.5662C1276.9 45.5143 1148.59 43.6218 1021.41 73.34C833.123 117.335 620.435 91.6662 537.695 73.3336L537.686 73.3317C442.01 52.5026 237.694 33.3727 86.0913 81.9586C55.5762 91.7382 26.9108 97.965 0 101.83V106.871C27.3802 102.977 56.5677 96.6709 87.6172 86.7201C238.01 38.522 441.315 57.4694 536.616 78.2159C619.779 96.6416 833.276 122.434 1022.54 78.2089C1149.42 48.562 1277.44 50.5556 1366 60.5972V55.5662ZM1366 76.7433C1276.74 66.7852 1148.35 64.94 1021.07 94.3932C833.078 137.898 620.628 112.512 538.012 94.3832L538.005 94.3817L537.997 94.3801C442.209 73.727 237.606 54.8344 85.6466 102.959C55.5288 112.498 26.9457 118.827 0 122.913V130.999C27.6738 126.862 57.0745 120.4 88.0619 110.586C238.108 63.0671 441.116 81.6763 536.304 102.199C619.593 120.474 833.324 146.053 1022.88 102.187C1149.67 72.8461 1277.6 74.85 1366 84.7921V76.7433ZM1366 97.5264C1285.18 90.1658 1170.1 88.9589 1021.08 111.468C823.177 141.36 635.046 125.263 537.999 111.461C440.471 97.5902 251.98 79.3324 85.4279 120.095C54.6843 127.619 26.3013 133.437 0 137.77V154H1366V116.168C1290.25 110.459 1183.97 107.64 1021.07 125.049C1008.62 126.38 996.243 127.579 983.962 128.655C996.873 127.069 1009.85 125.3 1022.87 123.334C1171.53 100.879 1286 102.208 1366 109.577V97.5264ZM536.309 123.341C545.926 124.709 556.43 126.099 567.745 127.466C557.126 126.635 547.151 125.813 537.868 125.031C535.228 124.809 532.542 124.582 529.812 124.351L529.749 124.345C425.475 115.53 255.703 101.178 85.2654 133.609C76.8695 135.206 68.6799 136.735 60.6876 138.193C69.6765 136.199 78.8717 134.053 88.2806 131.751C252.498 91.5597 439.085 109.514 536.309 123.341Z" fill="white"/>
</svg>
